<svg xmlns="http://www.w3.org/2000/svg" viewBox="0 0 28.57 17.01"><defs><style>.cls-1{fill:#2bd0e3;}.cls-2,.cls-3{fill:none;stroke:#2bd0e3;stroke-linecap:round;stroke-linejoin:round;stroke-width:1.14px;}.cls-3{stroke-dasharray:1.65 4.12;}</style></defs><title>資產 1</title><g id="圖層_2" data-name="圖層 2"><g id="圖層_1-2" data-name="圖層 1"><path class="cls-1" d="M23.31,16.48,28,11.74a1.8,1.8,0,0,0,0-2.55l-.76-.76a1.8,1.8,0,0,0-2.55,0L20,13.16a1.81,1.81,0,0,0,0,2.56l.75.76A1.82,1.82,0,0,0,23.31,16.48Z"/><path class="cls-1" d="M24.06,7.76a2.62,2.62,0,0,1,.83-.57L23,3.56a3.45,3.45,0,0,0-2.27-1.65L14.05.83a1.61,1.61,0,0,0-.88.1l5.58,5.58a1.63,1.63,0,0,1,.85-.22A1.75,1.75,0,1,1,17.85,8a1.69,1.69,0,0,1,.23-.85L12.5,1.6a1.54,1.54,0,0,0-.12.61h0a2.45,2.45,0,0,0,0,.27L13.47,9.2a3.45,3.45,0,0,0,1.65,2.27l3.64,1.85a2.7,2.7,0,0,1,.56-.83Z"/><line class="cls-2" x1="0.57" y1="13.91" x2="1.19" y2="13.18"/><line class="cls-3" x1="3.87" y1="10.06" x2="10.04" y2="2.86"/><line class="cls-2" x1="11.38" y1="1.29" x2="12" y2="0.57"/></g></g></svg>