<svg xmlns="http://www.w3.org/2000/svg" viewBox="0 0 19 19"><defs><style>.cls-1{fill:#bababa;}</style></defs><title>ig_draw</title><g id="圖層_2" data-name="圖層 2"><g id="圖層_1-2" data-name="圖層 1"><g id="palette"><path class="cls-1" d="M9.5,0a9.5,9.5,0,0,0,0,19,1.62,1.62,0,0,0,1.58-1.58,1.35,1.35,0,0,0-.42-1.06,1.88,1.88,0,0,1-.42-1,1.63,1.63,0,0,1,1.58-1.59h1.9A5.22,5.22,0,0,0,19,8.44C19,3.8,14.78,0,9.5,0ZM3.69,9.5a1.59,1.59,0,0,1,0-3.17A1.63,1.63,0,0,1,5.28,7.92,1.63,1.63,0,0,1,3.69,9.5ZM6.86,5.28A1.63,1.63,0,0,1,5.28,3.69,1.62,1.62,0,0,1,6.86,2.11,1.62,1.62,0,0,1,8.44,3.69,1.62,1.62,0,0,1,6.86,5.28Zm5.28,0a1.62,1.62,0,0,1-1.58-1.59,1.58,1.58,0,1,1,3.16,0A1.63,1.63,0,0,1,12.14,5.28ZM15.31,9.5a1.63,1.63,0,0,1-1.59-1.58,1.59,1.59,0,1,1,3.17,0A1.62,1.62,0,0,1,15.31,9.5Z"/></g></g></g></svg>