<svg xmlns="http://www.w3.org/2000/svg" viewBox="0 0 20.94 18.97"><defs><style>.cls-1{fill:#bababa;}.cls-2{fill:#fff;}</style></defs><title>ig_film</title><g id="圖層_2" data-name="圖層 2"><g id="圖層_1-2" data-name="圖層 1"><g id="theaters"><path class="cls-1" d="M13.15,0V1.88H11.27V0H3.76V1.88H1.88V0H0V16.91H1.88V15H3.76v1.88h7.51V15h1.88v1.88H15V0ZM3.76,13.15H1.88V11.27H3.76Zm0-3.75H1.88V7.52H3.76Zm0-3.76H1.88V3.76H3.76Zm9.39,7.51H11.27V11.27h1.88Zm0-3.75H11.27V7.52h1.88Zm0-3.76H11.27V3.76h1.88Z"/></g><path class="cls-2" d="M14.23,18.5a.73.73,0,0,1-.67-.44L9.25,8a.74.74,0,0,1,.15-.79A.76.76,0,0,1,9.92,7H10l.18,0L20,11a.71.71,0,0,1,.45.66.73.73,0,0,1-.44.67l-2.18.93,1.82,1.64a.74.74,0,0,1,0,1l-1.32,1.38a.63.63,0,0,1-.24.16.67.67,0,0,1-.28.06.71.71,0,0,1-.48-.19l-1.8-1.62L14.92,18a.73.73,0,0,1-.65.52Z"/><path class="cls-1" d="M9.92,7.42H10l9.83,4a.25.25,0,0,1,.16.23.25.25,0,0,1-.15.23L17,13.07l2.36,2.14a.23.23,0,0,1,.08.18.25.25,0,0,1-.06.18l-1.32,1.37A.16.16,0,0,1,18,17l-.1,0A.27.27,0,0,1,17.7,17l-2.35-2.14-.88,3a.26.26,0,0,1-.23.18h0a.25.25,0,0,1-.23-.15L9.68,7.76a.27.27,0,0,1,.06-.27.23.23,0,0,1,.18-.07m0-.94a1.21,1.21,0,0,0-.85.35,1.19,1.19,0,0,0-.25,1.3l4.31,10.12a1.19,1.19,0,0,0,1.1.72h.07a1.2,1.2,0,0,0,1.07-.85l.46-1.59,1.24,1.12a1.18,1.18,0,0,0,.8.31,1.1,1.1,0,0,0,.47-.1,1.18,1.18,0,0,0,.4-.27L20,16.22a1.14,1.14,0,0,0,.33-.87,1.19,1.19,0,0,0-.39-.84l-1.27-1.15,1.51-.64a1.19,1.19,0,0,0,0-2.2l-9.84-4a1.32,1.32,0,0,0-.44-.08Z"/></g></g></svg>