<?xml version="1.0" encoding="utf-8"?>
<!-- Generator: Adobe Illustrator 22.0.1, SVG Export Plug-In . SVG Version: 6.00 Build 0)  -->
<svg version="1.1" id="圖層_1" xmlns="http://www.w3.org/2000/svg" xmlns:xlink="http://www.w3.org/1999/xlink" x="0px" y="0px"
	 viewBox="0 0 27 16.2" style="enable-background:new 0 0 27 16.2;" xml:space="preserve">
<style type="text/css">
	.st0{fill:none;stroke:#BABABA;stroke-width:1.27;stroke-linecap:round;stroke-linejoin:round;}
	.st1{enable-background:new    ;}
	.st2{fill:#BABABA;}
</style>
<title>ig_js</title>
<g id="圖層_2_1_">
	<g id="圖層_1-2">
		<polyline class="st0" points="3.9,13.1 0.6,9.1 3.9,5.2 		"/>
		<polyline class="st0" points="23,13.1 26.3,9.1 23,5.2 		"/>
		<g class="st1">
			<path class="st2" d="M7.4,15.1c-0.5,0-0.9-0.1-1.3-0.2v-1.8c0.4,0.1,0.7,0.1,1,0.1c0.5,0,0.8-0.1,1-0.4c0.2-0.3,0.3-0.7,0.3-1.4
				V2h2.1v9.4c0,1.2-0.3,2.1-0.8,2.7S8.5,15.1,7.4,15.1z"/>
			<path class="st2" d="M19.1,9.3c0,0.9-0.3,1.6-1,2.2s-1.6,0.8-2.7,0.8c-1.1,0-2-0.2-2.9-0.6v-2c0.7,0.3,1.3,0.5,1.7,0.6
				c0.5,0.1,0.9,0.2,1.3,0.2c0.5,0,0.8-0.1,1.1-0.3S17,9.8,17,9.4c0-0.2-0.1-0.4-0.2-0.5c-0.1-0.2-0.3-0.3-0.5-0.4S15.7,8.1,15,7.8
				c-0.6-0.3-1.1-0.6-1.4-0.8c-0.3-0.3-0.6-0.6-0.7-0.9c-0.2-0.4-0.3-0.8-0.3-1.2c0-0.9,0.3-1.6,0.9-2.1c0.6-0.5,1.4-0.8,2.5-0.8
				c0.5,0,1,0.1,1.5,0.2c0.5,0.1,1,0.3,1.5,0.5l-0.7,1.7c-0.5-0.2-1-0.4-1.3-0.5c-0.4-0.1-0.7-0.1-1-0.1c-0.4,0-0.7,0.1-0.9,0.3
				c-0.2,0.2-0.3,0.4-0.3,0.7c0,0.2,0,0.4,0.1,0.5c0.1,0.1,0.2,0.3,0.4,0.4c0.2,0.1,0.6,0.4,1.4,0.7c0.9,0.5,1.6,0.9,1.9,1.4
				C18.9,8.1,19.1,8.7,19.1,9.3z"/>
		</g>
	</g>
</g>
</svg>
