<svg xmlns="http://www.w3.org/2000/svg" viewBox="0 0 20 14.62"><defs><style>.cls-1{fill:#bababa;}</style></defs><title>ig_rwd</title><g id="圖層_2" data-name="圖層 2"><g id="圖層_1-2" data-name="圖層 1"><path class="cls-1" d="M7,1.66l0,1H5.54V1.2C5.54,0,5.57,0,6.7,0H17.83c.44,0,.89,0,1.34,0s.83.2.83.78q0,5.64,0,11.28c0,.6-.32.77-.85.77-1.45,0-2.89,0-4.33,0h-.74c-.15.77.29,1.21,1.15,1.21.12,0,.15.15.15.54h-4V10.34h7.07V1.66Z"/><path class="cls-1" d="M5.42,14.62V13H9.06V5.11H4.19L4.13,6.2H2.7A20,20,0,0,1,2.73,4a.84.84,0,0,1,.64-.54c2.19,0,4.38,0,6.57,0,.57,0,.65.4.65.87q0,4.19,0,8.37c0,2.11.22,1.93-1.91,1.93Z"/><path class="cls-1" d="M4.6,10.85c0,1,0,1.94,0,2.91,0,.59-.22.87-.83.86-1,0-2,0-3,0-.57,0-.8-.25-.8-.81q0-3,0-6C0,7.28.22,7,.79,7c1,0,2,0,3.06,0,.53,0,.76.24.75.77C4.59,8.82,4.6,9.84,4.6,10.85ZM3.71,8.7H.93v4.24H3.71Z"/><circle class="cls-1" cx="2.3" cy="13.77" r="0.42"/></g></g></svg>