<svg xmlns="http://www.w3.org/2000/svg" viewBox="0 0 20 14.11"><defs><style>.cls-1{fill:#2bd0e3;}</style></defs><title>資產 5</title><g id="圖層_2" data-name="圖層 2"><g id="圖層_1-2" data-name="圖層 1"><path class="cls-1" d="M1.51,14.11h17A1.52,1.52,0,0,0,20,12.6V1.51A1.52,1.52,0,0,0,18.49,0h-17A1.52,1.52,0,0,0,0,1.51V12.6A1.52,1.52,0,0,0,1.51,14.11Zm9.65-1.06H8.84V11.61h2.32Zm5.55-12H19V2.53H16.71Zm-.07,10.51H19v1.44H16.64ZM12.81,1.1h2.33V2.53H12.81Zm-.07,10.51h2.33v1.44H12.74ZM8.9,1.1h2.33V2.53H8.9ZM8.25,4.57l3.5,1.75c.81.41.81,1.06,0,1.47L8.25,9.54a.94.94,0,0,1-1.47-.91V5.48A.94.94,0,0,1,8.25,4.57ZM5,1.1H7.33V2.53H5ZM4.93,11.61H7.26v1.44H4.93ZM1.1,1.1H3.42V2.53H1.1ZM1,11.61H3.36v1.44H1Z"/></g></g></svg>