<svg xmlns="http://www.w3.org/2000/svg" viewBox="0 0 20 18.17"><defs><style>.cls-1{fill:#2bd0e3;}</style></defs><title>資產 4</title><g id="圖層_2" data-name="圖層 2"><g id="圖層_1-2" data-name="圖層 1"><path class="cls-1" d="M18.8,0H1.2A1.2,1.2,0,0,0,0,1.2V17a1.2,1.2,0,0,0,1.2,1.2H18.8A1.2,1.2,0,0,0,20,17V1.2A1.2,1.2,0,0,0,18.8,0ZM15.17,2a.45.45,0,0,1,.45-.45h.44a.45.45,0,0,1,.45.45v.5a.45.45,0,0,1-.45.45h-.44a.45.45,0,0,1-.45-.45ZM13.11,2a.45.45,0,0,1,.44-.45H14a.45.45,0,0,1,.44.45v.5A.45.45,0,0,1,14,3h-.45a.45.45,0,0,1-.44-.45Zm5.45,14.71H1.44V4.3H18.56V16.73Zm0-14.21a.45.45,0,0,1-.44.45h-.45a.45.45,0,0,1-.44-.45V2a.45.45,0,0,1,.44-.45h.45a.45.45,0,0,1,.44.45Z"/><path class="cls-1" d="M4.29,11l3.22,1.5a.58.58,0,0,0,.26.06.67.67,0,0,0,.34-.1.64.64,0,0,0,.29-.53v0A.62.62,0,0,0,8,11.33l-2-.94,2-.93a.64.64,0,0,0,.36-.57v0a.61.61,0,0,0-.29-.52.61.61,0,0,0-.6,0L4.29,9.8a.63.63,0,0,0-.36.57v0A.62.62,0,0,0,4.29,11Z"/><path class="cls-1" d="M8.43,14a.6.6,0,0,0,.5.25H9a.61.61,0,0,0,.59-.43l2.12-6.57a.63.63,0,0,0-.09-.56.6.6,0,0,0-.5-.25h0a.61.61,0,0,0-.59.43L8.34,13.47A.62.62,0,0,0,8.43,14Z"/><path class="cls-1" d="M11.6,8.89a.64.64,0,0,0,.36.57l2,.93-2,.94a.62.62,0,0,0-.36.56v0a.64.64,0,0,0,.29.53.67.67,0,0,0,.34.1.58.58,0,0,0,.26-.06L15.71,11a.62.62,0,0,0,.36-.57v0a.63.63,0,0,0-.36-.57L12.49,8.31a.61.61,0,0,0-.6,0,.61.61,0,0,0-.29.52v0Z"/></g></g></svg>