<svg xmlns="http://www.w3.org/2000/svg" viewBox="0 0 68.45 68.45"><defs><style>.cls-1{fill:#fff;}</style></defs><title>icon_circle_arrow_down</title><g id="圖層_2" data-name="圖層 2"><g id="圖層_1-2" data-name="圖層 1"><path class="cls-1" d="M34.22,0A34.23,34.23,0,1,0,68.45,34.22,34.22,34.22,0,0,0,34.22,0ZM64,34.22A29.81,29.81,0,1,1,34.22,4.42,29.81,29.81,0,0,1,64,34.22Zm-28.63,12L51.27,30.29a1.68,1.68,0,0,0,0-2.35l-1-1a1.68,1.68,0,0,0-2.35,0L34.22,40.71,20.49,27a1.65,1.65,0,0,0-2.34,0l-1,1a1.65,1.65,0,0,0,0,2.34L33,46.19A1.69,1.69,0,0,0,35.4,46.17Z"/></g></g></svg>