<svg xmlns="http://www.w3.org/2000/svg" viewBox="0 0 17.5 17.57"><defs><style>.cls-1{fill:#c2c2c2;}.cls-2{fill:#2bd0e3;}</style></defs><title>icon_link</title><g id="圖層_2" data-name="圖層 2"><g id="圖層_1-2" data-name="圖層 1"><path class="cls-1" d="M11.67,5.87a4.83,4.83,0,0,1,.88,1.24,4.53,4.53,0,0,1-.88,5.18L7.76,16.23A4.54,4.54,0,0,1,1.34,9.81L4.11,7a5.27,5.27,0,0,0,.11,3.33L3.06,11.52a2.16,2.16,0,0,0,0,3,2.09,2.09,0,0,0,3,0L10,10.61A2.12,2.12,0,0,0,8.46,7l2-2A4.19,4.19,0,0,1,11.67,5.87Z"/><path class="cls-2" d="M5.83,11.71A5.06,5.06,0,0,1,5,10.46a4.53,4.53,0,0,1,.88-5.18L9.74,1.34a4.54,4.54,0,0,1,6.42,6.42l-2.78,2.78a5.17,5.17,0,0,0-.1-3.32l1.16-1.17a2.14,2.14,0,0,0,0-3,2.09,2.09,0,0,0-3,0L7.58,7a2.12,2.12,0,0,0,1.5,3.61l-2,2A5,5,0,0,1,5.83,11.71Z"/></g></g></svg>