<svg xmlns="http://www.w3.org/2000/svg" viewBox="0 0 63.55 63.48"><defs><style>.cls-1{fill:#fff;}</style></defs><title>icon_play</title><g id="圖層_2" data-name="圖層 2"><g id="圖層_1-2" data-name="圖層 1"><path class="cls-1" d="M31.78,57.15a24.51,24.51,0,0,1-9.9-2,25.93,25.93,0,0,1-8.08-5.47A25.49,25.49,0,0,1,8.37,41.6a25.76,25.76,0,0,1,0-19.76,25.05,25.05,0,0,1,5.43-8.07,26.37,26.37,0,0,1,8.08-5.44,24.67,24.67,0,0,1,9.9-2,24.62,24.62,0,0,1,9.89,2,26.37,26.37,0,0,1,8.08,5.44,25.2,25.2,0,0,1,7.4,17.93,24.86,24.86,0,0,1-2,9.9,25.16,25.16,0,0,1-5.43,8.07,25.93,25.93,0,0,1-8.08,5.47A24.46,24.46,0,0,1,31.78,57.15ZM31.78,0A31,31,0,0,0,19.42,2.49,31.87,31.87,0,0,0,2.49,19.39,30.71,30.71,0,0,0,0,31.7,30.89,30.89,0,0,0,2.49,44.09,31.87,31.87,0,0,0,19.42,61a31,31,0,0,0,12.36,2.49A31,31,0,0,0,44.13,61a31.87,31.87,0,0,0,16.93-16.9A30.89,30.89,0,0,0,63.55,31.7a30.71,30.71,0,0,0-2.49-12.31A31.87,31.87,0,0,0,44.13,2.49,31,31,0,0,0,31.78,0ZM25.45,44.43,44.5,31.7l-19-12.65Z"/></g></g></svg>