<svg xmlns="http://www.w3.org/2000/svg" viewBox="0 0 29.99 17.85"><defs><style>.cls-1{fill:#bababa;}.cls-2,.cls-3{fill:none;stroke:#bababa;stroke-linecap:round;stroke-linejoin:round;stroke-width:1.2px;}.cls-3{stroke-dasharray:1.73 4.33;}</style></defs><title>ig_design</title><g id="圖層_2" data-name="圖層 2"><g id="圖層_1-2" data-name="圖層 1"><path class="cls-1" d="M24.47,17.3l5-5a1.91,1.91,0,0,0,0-2.68l-.8-.8a1.91,1.91,0,0,0-2.68,0l-5,5a1.91,1.91,0,0,0,0,2.68l.8.8A1.9,1.9,0,0,0,24.47,17.3Z"/><path class="cls-1" d="M25.26,8.14a2.85,2.85,0,0,1,.87-.59L24.18,3.74A3.59,3.59,0,0,0,21.8,2l-7-1.12a1.57,1.57,0,0,0-.92.1l5.85,5.85a1.84,1.84,0,0,1,.89-.23,1.82,1.82,0,0,1,1.3.54,1.78,1.78,0,0,1,.54,1.29,1.82,1.82,0,0,1-.54,1.3,1.85,1.85,0,0,1-2.59,0,1.82,1.82,0,0,1-.54-1.3A1.72,1.72,0,0,1,19,7.54L13.12,1.68a1.65,1.65,0,0,0-.13.63h0a1.53,1.53,0,0,0,0,.3l1.12,7.05A3.61,3.61,0,0,0,15.88,12L19.69,14a2.83,2.83,0,0,1,.6-.87Z"/><line class="cls-2" x1="0.6" y1="14.6" x2="1.25" y2="13.84"/><line class="cls-3" x1="4.07" y1="10.56" x2="10.54" y2="3"/><line class="cls-2" x1="11.95" y1="1.36" x2="12.6" y2="0.6"/></g></g></svg>