<svg xmlns="http://www.w3.org/2000/svg" viewBox="0 0 124.71 70.78"><defs><style>.cls-1{fill:#fff;}.cls-2{fill:#c20012;fill-rule:evenodd;}</style></defs><title>c00-1</title><g id="圖層_2" data-name="圖層 2"><g id="圖層_1-2" data-name="圖層 1"><path class="cls-1" d="M120,21.29a4.69,4.69,0,1,1,4.76-4.69A4.63,4.63,0,0,1,120,21.29Zm0-8.63a3.94,3.94,0,1,0,4,3.94A3.89,3.89,0,0,0,120,12.66ZM121,17l1.06,2.07h-1l-1-2h-1v2h-.88V14h2.28a1.52,1.52,0,0,1,1.7,1.54A1.46,1.46,0,0,1,121,17Zm-.62-2.22H119v1.46h1.37c.47,0,.83-.21.83-.72A.75.75,0,0,0,120.4,14.78Z"/><path class="cls-2" d="M110.53,18.51a44.38,44.38,0,0,0-72.12,0l-.42.6H48.43l.11-.13a35.92,35.92,0,0,1,51.87,0l.1.13H111l-.42-.6Z"/><path class="cls-1" d="M33.84,57.09l-.19.18c-3.21,3.23-6.92,4.95-10.74,4.95-8,0-13.77-5.94-13.77-14.08s5.79-14,13.77-14c3.82,0,7.53,1.71,10.74,4.95l.19.19L39,33.11,38.84,33a19.64,19.64,0,0,0-15.68-7.42A24,24,0,0,0,6.91,31.41C2.38,35.53,0,41.3,0,48.14S2.38,60.79,6.91,64.89a23.92,23.92,0,0,0,16.25,5.89,19.66,19.66,0,0,0,15.68-7.41l.15-.14Z"/><rect class="cls-1" x="44.17" y="26.24" width="9.07" height="43.7"/><path class="cls-1" d="M88.74,60.45a13.25,13.25,0,0,1-6.69,2.19c-2.93,0-4.25-1.54-4.25-4.94V34.5H87V26.28H77.8V12.69l-8.88,4.68v8.91H61.26V34.5h7.66V59.19c0,6.71,4,11.3,10,11.42a14.47,14.47,0,0,0,8-2l.09-.06,2.18-8.43Z"/><rect class="cls-1" x="96.26" y="26.24" width="9.06" height="43.7"/></g></g></svg>