<svg xmlns="http://www.w3.org/2000/svg" viewBox="0 0 324.5 324.5"><defs><style>.cls-1,.cls-8{fill:none;}.cls-2{fill:#ffcba9;}.cls-3{fill:#f19f77;}.cls-4,.cls-6{fill:#475d6d;}.cls-5{fill:#2c3f4f;}.cls-6,.cls-8{stroke:#475d6d;}.cls-6,.cls-7,.cls-8{stroke-linecap:round;stroke-linejoin:round;}.cls-6{stroke-width:5px;}.cls-7{fill:#cd3a4c;stroke:#cd3a4c;stroke-width:6px;}.cls-8{stroke-width:3.5px;}</style></defs><g id="圖層_2" data-name="圖層 2"><g id="圖層_1-2" data-name="圖層 1"><circle class="cls-1" cx="162.25" cy="162.25" r="162.25"/><path class="cls-2" d="M102.74,135.13v33.4H87A13.42,13.42,0,0,0,73.58,182h0A13.43,13.43,0,0,0,87,195.39h15.74v13.67A58.91,58.91,0,0,0,161.67,268h0A58.91,58.91,0,0,0,220.57,209l0-73.92Z"/><path class="cls-3" d="M87,168.53h15.74v-33.4l117.81,0-100.36,0v73.92c0,30.94,20.34,56.29,46.17,58.69-1.55.13-3.12.21-4.71.21h0a58.91,58.91,0,0,1-58.91-58.9V195.38H87a13.43,13.43,0,1,1,0-26.85Z"/><path class="cls-4" d="M220.55,141.66l-107.15,0a10.66,10.66,0,0,0-10.66,10.66v16.19H87a13.73,13.73,0,0,0-3.53.48l0-74.07a19,19,0,0,1,19-19H183c18.37,0,36-6.37,44.89-19.4C268.09,78.55,249.17,141.65,220.55,141.66Z"/><path class="cls-5" d="M227.87,56.55a36.34,36.34,0,0,1-7.73,8.18c25.35,26.39,7.52,76.93-18.09,76.93h18.5C249.17,141.65,268.09,78.55,227.87,56.55Z"/><path class="cls-6" d="M146.22,180.18c-.09,3.31,1.37,6,3.27,6.08s3.5-2.59,3.59-5.9-1.38-6-3.27-6.08S146.3,176.87,146.22,180.18Z"/><path class="cls-6" d="M198.62,180.18c-.09,3.31,1.37,6,3.27,6.08s3.5-2.59,3.59-5.9-1.38-6-3.27-6.08S198.7,176.87,198.62,180.18Z"/><path class="cls-7" d="M159.55,223.22c.76-.29,2.43,4.88,8,7.13s10.92-.07,11.19.64c.17.3-.91,1.39-3.21,2.2a13.5,13.5,0,0,1-9.25-.24,11.8,11.8,0,0,1-6.39-6.08C159,224.77,159.19,223.31,159.55,223.22Z"/><path class="cls-8" d="M183,177.89l-.54,20.27c8.37,2.4,15.25,5.36-.44,16.71"/></g></g></svg>