<svg xmlns="http://www.w3.org/2000/svg" viewBox="0 0 324.5 324.5"><defs><style>.cls-1{fill:none;}.cls-2{fill:#ffcba9;}.cls-3{fill:#f19f77;}.cls-4{fill:#475d6d;}.cls-5{fill:#cd3a4c;}.cls-6{fill:#2c3f4f;}</style></defs><g id="圖層_2" data-name="圖層 2"><g id="圖層_1-2" data-name="圖層 1"><circle class="cls-1" cx="162.25" cy="162.25" r="162.25"/><path class="cls-2" d="M102.74,135.13v33.4H87A13.42,13.42,0,0,0,73.58,182h0A13.43,13.43,0,0,0,87,195.39h15.74v13.67A58.91,58.91,0,0,0,161.67,268h0A58.91,58.91,0,0,0,220.57,209l0-73.92Z"/><path class="cls-3" d="M87,168.53h15.74v-33.4l117.81,0-100.36,0v73.92c0,30.94,20.34,56.29,46.17,58.69-1.55.13-3.12.21-4.71.21h0a58.91,58.91,0,0,1-58.91-58.9V195.38H87a13.43,13.43,0,1,1,0-26.85Z"/><path class="cls-4" d="M132.29,187.22a5.3,5.3,0,0,1-3.11-9,15.8,15.8,0,0,1,22.35,0,5.31,5.31,0,0,1-7.51,7.5,5.19,5.19,0,0,0-7.33,0A5.31,5.31,0,0,1,132.29,187.22Z"/><path class="cls-4" d="M188.82,187.21a5.3,5.3,0,0,1-3.1-9,15.81,15.81,0,0,1,22.34,0,5.3,5.3,0,0,1-7.5,7.5,5.2,5.2,0,0,0-7.34,0A5.28,5.28,0,0,1,188.82,187.21Z"/><path class="cls-5" d="M172.69,237.65h0A18.63,18.63,0,0,1,154.06,219V213.9a2.82,2.82,0,0,1,2.82-2.82H188.5a2.82,2.82,0,0,1,2.82,2.82V219A18.64,18.64,0,0,1,172.69,237.65Z"/><path class="cls-4" d="M220.55,141.66l-107.15,0a10.66,10.66,0,0,0-10.66,10.66v16.19H87a13.73,13.73,0,0,0-3.53.48l0-74.07a19,19,0,0,1,19-19H183c18.37,0,36-6.37,44.89-19.4C268.09,78.55,249.17,141.65,220.55,141.66Z"/><path class="cls-6" d="M227.87,56.55a36.34,36.34,0,0,1-7.73,8.18c25.35,26.39,7.52,76.93-18.09,76.93h18.5C249.17,141.65,268.09,78.55,227.87,56.55Z"/></g></g></svg>