<svg xmlns="http://www.w3.org/2000/svg" viewBox="0 0 324.5 324.5"><defs><style>.cls-1{fill:none;}.cls-2{fill:#bd6351;}.cls-3{fill:#ffcba9;}.cls-4{fill:#f19f77;}.cls-5{fill:#475d6d;}.cls-6{fill:#cd3a4c;}.cls-7{fill:#a9473a;}</style></defs><g id="圖層_2" data-name="圖層 2"><g id="圖層_1-2" data-name="圖層 1"><circle class="cls-1" cx="162.25" cy="162.25" r="162.25"/><path class="cls-2" d="M178.7,173.62l22.59,14a14.94,14.94,0,0,0,11.87,1.6,40.17,40.17,0,1,1-9.95,72.94L155,232.53a10.16,10.16,0,0,0-14,3.39l-8,13.17-12.81-7.82a13,13,0,0,0-3.11-1.37l36.77-60.26A18.07,18.07,0,0,1,178.7,173.62Z"/><path class="cls-2" d="M147.86,147.45,207,186a12.44,12.44,0,0,0-2.21,2.57l-8.19,12.58-12.93-8.42a10.17,10.17,0,0,0-14.06,3L134,247.85a40.17,40.17,0,1,1-40.44-61.5,15,15,0,0,0,10-6.57l19.23-27A18.08,18.08,0,0,1,147.86,147.45Z"/><path class="cls-3" d="M110.09,129.12v33.4H94.35A13.43,13.43,0,0,0,80.92,176h0a13.43,13.43,0,0,0,13.43,13.43h15.74V203A58.9,58.9,0,0,0,169,261.94h0A58.91,58.91,0,0,0,227.91,203V129.11Z"/><path class="cls-4" d="M94.35,162.52h15.74v-33.4h17.45V203c0,31,20.34,56.3,46.17,58.7-1.55.12-3.12.2-4.71.2h0A58.91,58.91,0,0,1,110.09,203V189.37H94.35a13.43,13.43,0,0,1,0-26.86Z"/><path class="cls-5" d="M139.63,181.21a5.27,5.27,0,0,0,4.4-1.52,5.2,5.2,0,0,1,7.34,0,5.3,5.3,0,0,0,7.5-7.5,15.81,15.81,0,0,0-22.34,0,5.3,5.3,0,0,0,3.1,9Z"/><path class="cls-5" d="M196.16,181.2a5.3,5.3,0,0,0,4.4-1.51,5.19,5.19,0,0,1,7.34,0,5.31,5.31,0,0,0,7.5-7.51,15.81,15.81,0,0,0-22.34,0,5.3,5.3,0,0,0,3.1,9Z"/><path class="cls-6" d="M180,231.64h0A18.64,18.64,0,0,1,161.4,213v-5.12a2.82,2.82,0,0,1,2.82-2.82h31.63a2.83,2.83,0,0,1,2.82,2.82V213A18.64,18.64,0,0,1,180,231.64Z"/><path class="cls-2" d="M109.78,74.16H182a14.94,14.94,0,0,0,11-4.82,40.22,40.22,0,1,1,29.53,67.52l-102.24,0A10.17,10.17,0,0,0,110.08,147v15.45h-15a12.59,12.59,0,0,0-3.38.46V92.27A18.1,18.1,0,0,1,109.78,74.16Z"/><path class="cls-7" d="M109.78,74.16h13.06a18.1,18.1,0,0,0-18.1,18.1v70.23H95.06a12.59,12.59,0,0,0-3.38.46V92.27A18.1,18.1,0,0,1,109.78,74.16Z"/></g></g></svg>