<svg xmlns="http://www.w3.org/2000/svg" viewBox="0 0 324.5 324.5"><defs><style>.cls-1,.cls-8{fill:none;}.cls-2{fill:#bd6351;}.cls-3{fill:#ffcba9;}.cls-4{fill:#f19f77;}.cls-5{fill:#a9473a;}.cls-6{fill:#475d6d;stroke-width:5px;}.cls-6,.cls-8{stroke:#475d6d;}.cls-6,.cls-7,.cls-8{stroke-linecap:round;stroke-linejoin:round;}.cls-7{fill:#cd3a4c;stroke:#cd3a4c;stroke-width:6px;}.cls-8{stroke-width:3.5px;}</style></defs><g id="圖層_2" data-name="圖層 2"><g id="圖層_1-2" data-name="圖層 1"><circle class="cls-1" cx="162.25" cy="162.25" r="162.25"/><path class="cls-2" d="M178.7,173.62l22.59,14a14.94,14.94,0,0,0,11.87,1.6,40.17,40.17,0,1,1-9.95,72.94L155,232.53a10.16,10.16,0,0,0-14,3.39l-8,13.17-12.81-7.82a13,13,0,0,0-3.11-1.37l36.77-60.26A18.07,18.07,0,0,1,178.7,173.62Z"/><path class="cls-2" d="M147.86,147.45,207,186a12.44,12.44,0,0,0-2.21,2.57l-8.19,12.58-12.93-8.42a10.17,10.17,0,0,0-14.06,3L134,247.85a40.17,40.17,0,1,1-40.44-61.5,15,15,0,0,0,10-6.57l19.23-27A18.08,18.08,0,0,1,147.86,147.45Z"/><path class="cls-3" d="M110.09,129.12v33.4H94.35A13.43,13.43,0,0,0,80.92,176h0a13.43,13.43,0,0,0,13.43,13.43h15.74V203A58.9,58.9,0,0,0,169,261.94h0A58.91,58.91,0,0,0,227.91,203V129.11Z"/><path class="cls-4" d="M94.35,162.52h15.74v-33.4h17.45V203c0,31,20.34,56.3,46.17,58.7-1.55.12-3.12.2-4.71.2h0A58.91,58.91,0,0,1,110.09,203V189.37H94.35a13.43,13.43,0,0,1,0-26.86Z"/><path class="cls-2" d="M109.78,74.16H182a14.94,14.94,0,0,0,11-4.82,40.22,40.22,0,1,1,29.53,67.52l-102.24,0A10.17,10.17,0,0,0,110.08,147v15.45h-15a12.59,12.59,0,0,0-3.38.46V92.27A18.1,18.1,0,0,1,109.78,74.16Z"/><path class="cls-5" d="M109.78,74.16h13.06a18.1,18.1,0,0,0-18.1,18.1v70.23H95.06a12.59,12.59,0,0,0-3.38.46V92.27A18.1,18.1,0,0,1,109.78,74.16Z"/><path class="cls-6" d="M147.56,178.94c-.09,3.31,1.38,6,3.27,6.08s3.5-2.59,3.59-5.9-1.38-6-3.27-6.07S147.65,175.64,147.56,178.94Z"/><path class="cls-6" d="M200,178.94c-.09,3.31,1.38,6,3.27,6.08s3.5-2.59,3.59-5.9-1.38-6-3.27-6.07S200.05,175.64,200,178.94Z"/><path class="cls-7" d="M160.9,222c.76-.29,2.42,4.87,8,7.12s10.92-.07,11.19.64c.18.3-.91,1.4-3.21,2.2a13.47,13.47,0,0,1-9.24-.24,11.75,11.75,0,0,1-6.4-6.08C160.37,223.54,160.53,222.07,160.9,222Z"/><path class="cls-8" d="M184.36,176.65l-.54,20.28c8.37,2.4,15.25,5.35-.44,16.7"/></g></g></svg>