<svg xmlns="http://www.w3.org/2000/svg" viewBox="0 0 18 18"><defs><style>.cls-1{fill:#2bd0e3;}</style></defs><title>資產 2</title><g id="圖層_2" data-name="圖層 2"><g id="圖層_1-2" data-name="圖層 1"><g id="palette"><path class="cls-1" d="M9,0A9,9,0,0,0,9,18a1.54,1.54,0,0,0,1.5-1.5,1.28,1.28,0,0,0-.4-1,1.78,1.78,0,0,1-.4-1A1.54,1.54,0,0,1,11.2,13H13a5,5,0,0,0,5-5C18,3.6,14,0,9,0ZM3.5,9A1.54,1.54,0,0,1,2,7.5,1.54,1.54,0,0,1,3.5,6a1.5,1.5,0,0,1,0,3Zm3-4A1.54,1.54,0,0,1,5,3.5,1.54,1.54,0,0,1,6.5,2,1.54,1.54,0,0,1,8,3.5,1.54,1.54,0,0,1,6.5,5Zm5,0A1.54,1.54,0,0,1,10,3.5a1.5,1.5,0,0,1,3,0A1.54,1.54,0,0,1,11.5,5Zm3,4A1.5,1.5,0,1,1,16,7.5,1.54,1.54,0,0,1,14.5,9Z"/></g></g></g></svg>